<?xml version="1.0" encoding="UTF-8"?>
<!DOCTYPE svg PUBLIC "-//W3C//DTD SVG 1.1//EN" "http://www.w3.org/Graphics/SVG/1.1/DTD/svg11.dtd">
<svg xmlns="http://www.w3.org/2000/svg" version="1.1" width="571px" height="300px" style="shape-rendering:geometricPrecision; text-rendering:geometricPrecision; image-rendering:optimizeQuality; fill-rule:evenodd; clip-rule:evenodd" xmlns:xlink="http://www.w3.org/1999/xlink">
<g><path style="opacity:1" fill="#f16a2d" d="M -0.5,-0.5 C 189.833,-0.5 380.167,-0.5 570.5,-0.5C 570.5,99.5 570.5,199.5 570.5,299.5C 380.167,299.5 189.833,299.5 -0.5,299.5C -0.5,199.5 -0.5,99.5 -0.5,-0.5 Z"/></g>
<g><path style="opacity:1" fill="#fefffe" d="M 275.5,58.5 C 312.343,55.6749 341.176,69.3416 362,99.5C 374.992,123.929 376.992,149.262 368,175.5C 354.655,204.099 332.488,221.599 301.5,228C 256.516,232.436 225.35,213.936 208,172.5C 196.382,131.604 207.216,98.104 240.5,72C 251.477,65.4018 263.144,60.9018 275.5,58.5 Z"/></g>
<g><path style="opacity:1" fill="#f16a2d" d="M 275.5,66.5 C 314.226,63.6045 342.392,79.2712 360,113.5C 374.265,159.399 360.098,193.232 317.5,215C 288.667,225.71 262,221.71 237.5,203C 212.004,177.513 205.171,147.679 217,113.5C 228.362,87.632 247.862,71.9653 275.5,66.5 Z"/></g>
<g><path style="opacity:1" fill="#fefffe" d="M 286.5,81.5 C 289.864,80.8728 291.864,82.2061 292.5,85.5C 291.271,87.5622 290.271,89.7289 289.5,92C 290.271,94.2711 291.271,96.4378 292.5,98.5C 290.985,101.59 290.318,104.924 290.5,108.5C 291.367,120.173 291.867,131.84 292,143.5C 287.179,146.823 284.679,145.49 284.5,139.5C 285.266,129.176 285.933,118.842 286.5,108.5C 286.682,104.924 286.015,101.59 284.5,98.5C 285.729,96.4378 286.729,94.2711 287.5,92C 286.729,89.7289 285.729,87.5622 284.5,85.5C 284.752,83.9271 285.418,82.5938 286.5,81.5 Z"/></g>
<g><path style="opacity:1" fill="#fefffe" d="M 259.5,101.5 C 265.488,101.664 266.821,104.164 263.5,109C 257.403,109.147 256.07,106.647 259.5,101.5 Z"/></g>
<g><path style="opacity:1" fill="#fefffe" d="M 312.5,104.5 C 318.488,104.664 319.821,107.164 316.5,112C 310.403,112.147 309.07,109.647 312.5,104.5 Z"/></g>
<g><path style="opacity:1" fill="#fefffe" d="M 300.5,111.5 C 306.488,111.664 307.821,114.164 304.5,119C 298.403,119.147 297.07,116.647 300.5,111.5 Z"/></g>
<g><path style="opacity:1" fill="#fefffe" d="M 272.5,121.5 C 278.488,121.664 279.821,124.164 276.5,129C 270.403,129.147 269.07,126.647 272.5,121.5 Z"/></g>
<g><path style="opacity:1" fill="#fefffe" d="M 240.5,122.5 C 246.488,122.664 247.821,125.164 244.5,130C 238.403,130.147 237.07,127.647 240.5,122.5 Z"/></g>
<g><path style="opacity:1" fill="#fefffe" d="M 255.5,122.5 C 261.488,122.664 262.821,125.164 259.5,130C 253.403,130.147 252.07,127.647 255.5,122.5 Z"/></g>
<g><path style="opacity:1" fill="#fefffe" d="M 338.5,125.5 C 344.488,125.664 345.821,128.164 342.5,133C 336.403,133.147 335.07,130.647 338.5,125.5 Z"/></g>
<g><path style="opacity:1" fill="#fefffe" d="M 326.5,128.5 C 332.488,128.664 333.821,131.164 330.5,136C 324.403,136.147 323.07,133.647 326.5,128.5 Z"/></g>
<g><path style="opacity:1" fill="#fefffe" d="M 315.5,131.5 C 321.488,131.664 322.821,134.164 319.5,139C 313.403,139.147 312.07,136.647 315.5,131.5 Z"/></g>
<g><path style="opacity:1" fill="#fefffe" d="M 263.5,135.5 C 269.488,135.664 270.821,138.164 267.5,143C 261.403,143.147 260.07,140.647 263.5,135.5 Z"/></g>
<g><path style="opacity:1" fill="#fefffe" d="M 302.5,135.5 C 308.488,135.664 309.821,138.164 306.5,143C 300.403,143.147 299.07,140.647 302.5,135.5 Z"/></g>
<g><path style="opacity:1" fill="#fefffe" d="M 252.5,147.5 C 258.488,147.664 259.821,150.164 256.5,155C 250.403,155.147 249.07,152.647 252.5,147.5 Z"/></g>
<g><path style="opacity:1" fill="#fefffe" d="M 239.5,151.5 C 245.488,151.664 246.821,154.164 243.5,159C 237.403,159.147 236.07,156.647 239.5,151.5 Z"/></g>
<g><path style="opacity:1" fill="#fefffe" d="M 299.5,152.5 C 305.488,152.664 306.821,155.164 303.5,160C 297.403,160.147 296.07,157.647 299.5,152.5 Z"/></g>
<g><path style="opacity:1" fill="#fefffe" d="M 267.5,153.5 C 273.488,153.664 274.821,156.164 271.5,161C 265.403,161.147 264.07,158.647 267.5,153.5 Z"/></g>
<g><path style="opacity:1" fill="#fefffe" d="M 324.5,155.5 C 330.488,155.664 331.821,158.164 328.5,163C 322.403,163.147 321.07,160.647 324.5,155.5 Z"/></g>
<g><path style="opacity:1" fill="#fefffe" d="M 310.5,157.5 C 316.488,157.664 317.821,160.164 314.5,165C 308.403,165.147 307.07,162.647 310.5,157.5 Z"/></g>
<g><path style="opacity:1" fill="#fefffe" d="M 283.5,160.5 C 289.488,160.664 290.821,163.164 287.5,168C 281.403,168.147 280.07,165.647 283.5,160.5 Z"/></g>
<g><path style="opacity:1" fill="#fefffe" d="M 266.5,167.5 C 272.488,167.664 273.821,170.164 270.5,175C 264.403,175.147 263.07,172.647 266.5,167.5 Z"/></g>
<g><path style="opacity:1" fill="#fefffe" d="M 291.5,171.5 C 297.488,171.664 298.821,174.164 295.5,179C 289.403,179.147 288.07,176.647 291.5,171.5 Z"/></g>
<g><path style="opacity:1" fill="#fefffe" d="M 255.5,174.5 C 261.488,174.664 262.821,177.164 259.5,182C 253.403,182.147 252.07,179.647 255.5,174.5 Z"/></g>
<g><path style="opacity:1" fill="#fefffe" d="M 307.5,178.5 C 313.488,178.664 314.821,181.164 311.5,186C 305.403,186.147 304.07,183.647 307.5,178.5 Z"/></g>
<g><path style="opacity:1" fill="#fefffe" d="M 247.5,184.5 C 253.488,184.664 254.821,187.164 251.5,192C 245.403,192.147 244.07,189.647 247.5,184.5 Z"/></g>
<g><path style="opacity:1" fill="#fefffe" d="M 279.5,184.5 C 285.488,184.664 286.821,187.164 283.5,192C 277.403,192.147 276.07,189.647 279.5,184.5 Z"/></g>
<g><path style="opacity:1" fill="#fefffe" d="M 314.5,189.5 C 320.488,189.664 321.821,192.164 318.5,197C 312.403,197.147 311.07,194.647 314.5,189.5 Z"/></g>
</svg>
