<?xml version="1.0" standalone="no"?>
<!DOCTYPE svg PUBLIC "-//W3C//DTD SVG 20010904//EN"
 "http://www.w3.org/TR/2001/REC-SVG-20010904/DTD/svg10.dtd">
<svg version="1.0" xmlns="http://www.w3.org/2000/svg"
 width="250.000000pt" height="352.000000pt" viewBox="0 0 250.000000 352.000000"
 preserveAspectRatio="xMidYMid meet">

<g transform="translate(0.000000,352.000000) scale(0.100000,-0.100000)"
fill="#000000" stroke="none">
<path d="M1792 2983 l2 -178 3 173 3 172 165 0 165 0 3 -172 3 -173 2 178 2
177 -175 0 -175 0 2 -177z"/>
<path d="M1080 2630 l0 -170 170 0 170 0 0 170 0 170 -170 0 -170 0 0 -170z
m330 0 l0 -160 -160 0 -160 0 0 160 0 160 160 0 160 0 0 -160z"/>
<path d="M720 2275 l0 -175 173 0 172 0 -3 175 -3 175 -169 0 -170 0 0 -175z
m330 0 l0 -165 -160 0 -160 0 0 165 0 165 160 0 160 0 0 -165z"/>
<path d="M2150 1210 l0 -170 178 2 177 2 -172 3 -173 3 0 160 0 160 173 3 172
3 -177 2 -178 2 0 -170z"/>
</g>
</svg>
